# xmcd
#
# Track frame offsets:
#  150
#  22754
#  42564
#  64092
#  85486
#  108543
#
# Disc length: 1650 seconds
#
# Revision: 0
# Processed by: cddbd v1.4PL0 Copyright (c) Steve Scherf et al.
# Submitted via: AltoMP3_Maker 3.0
#
DISCID=49067006
DTITLE=Sohna - Kala Varam
DYEAR=1900
DGENRE=
TTITLE0=Raathirayithe
TTITLE1=Pedavi Daatani
TTITLE2=Ishwarya
TTITLE3=Chinni Chinni
TTITLE4=Raathiaryithe..
TTITLE5=Sexy Sexy
EXTD=
EXTT0=
EXTT1=
EXTT2=
EXTT3=
EXTT4=
EXTT5=
PLAYORDER=
